<mxfile host="app.diagrams.net" agent="Mozilla/5.0 (Windows NT 10.0; Win64; x64) AppleWebKit/537.36 (KHTML, like Gecko) Chrome/135.0.0.0 Safari/537.36" version="27.0.2" pages="2">
  <diagram name="Page-1" id="-W3zWHnrHhLnT5CMKBTL">
    <mxGraphModel dx="1158" dy="643" grid="1" gridSize="10" guides="1" tooltips="1" connect="1" arrows="1" fold="1" page="1" pageScale="1" pageWidth="827" pageHeight="1169" math="0" shadow="0">
      <root>
        <mxCell id="0" />
        <mxCell id="1" parent="0" />
        <mxCell id="XO8Zl-QUJNWZfFOcC7H5-14" value="" style="edgeStyle=none;curved=1;rounded=0;orthogonalLoop=1;jettySize=auto;html=1;fontSize=12;startSize=8;endSize=8;" parent="1" source="XO8Zl-QUJNWZfFOcC7H5-1" target="XO8Zl-QUJNWZfFOcC7H5-7" edge="1">
          <mxGeometry relative="1" as="geometry" />
        </mxCell>
        <mxCell id="XO8Zl-QUJNWZfFOcC7H5-1" value="User makes request&lt;div&gt;&lt;br&gt;&lt;/div&gt;" style="rounded=0;whiteSpace=wrap;html=1;" parent="1" vertex="1">
          <mxGeometry x="60" y="30" width="120" height="60" as="geometry" />
        </mxCell>
        <mxCell id="XO8Zl-QUJNWZfFOcC7H5-2" value="TicketMaster API fetches names of nearby&amp;nbsp;" style="rounded=0;whiteSpace=wrap;html=1;" parent="1" vertex="1">
          <mxGeometry x="350" y="30" width="119" height="60" as="geometry" />
        </mxCell>
        <mxCell id="XO8Zl-QUJNWZfFOcC7H5-5" value="Spotify verifies artists" style="rounded=0;whiteSpace=wrap;html=1;" parent="1" vertex="1">
          <mxGeometry x="490" y="30" width="120" height="60" as="geometry" />
        </mxCell>
        <mxCell id="XO8Zl-QUJNWZfFOcC7H5-6" value="Spotify creates playlist" style="rounded=0;whiteSpace=wrap;html=1;" parent="1" vertex="1">
          <mxGeometry x="640" y="30" width="120" height="60" as="geometry" />
        </mxCell>
        <mxCell id="XO8Zl-QUJNWZfFOcC7H5-7" value="IPInfoAPI fetches users location from IP address" style="rounded=0;whiteSpace=wrap;html=1;" parent="1" vertex="1">
          <mxGeometry x="210" y="30" width="120" height="60" as="geometry" />
        </mxCell>
        <mxCell id="XO8Zl-QUJNWZfFOcC7H5-13" value="" style="endArrow=classic;html=1;rounded=0;fontSize=12;startSize=8;endSize=8;curved=1;entryX=0;entryY=0.5;entryDx=0;entryDy=0;" parent="1" target="XO8Zl-QUJNWZfFOcC7H5-7" edge="1">
          <mxGeometry width="50" height="50" relative="1" as="geometry">
            <mxPoint x="180" y="60" as="sourcePoint" />
            <mxPoint x="230" y="10" as="targetPoint" />
          </mxGeometry>
        </mxCell>
        <mxCell id="XO8Zl-QUJNWZfFOcC7H5-16" value="" style="endArrow=classic;html=1;rounded=0;fontSize=12;startSize=8;endSize=8;curved=1;entryX=0;entryY=0.5;entryDx=0;entryDy=0;exitX=1;exitY=0.5;exitDx=0;exitDy=0;" parent="1" source="XO8Zl-QUJNWZfFOcC7H5-7" target="XO8Zl-QUJNWZfFOcC7H5-2" edge="1">
          <mxGeometry width="50" height="50" relative="1" as="geometry">
            <mxPoint x="200" y="80" as="sourcePoint" />
            <mxPoint x="230" y="80" as="targetPoint" />
          </mxGeometry>
        </mxCell>
        <mxCell id="XO8Zl-QUJNWZfFOcC7H5-17" value="" style="endArrow=classic;html=1;rounded=0;fontSize=12;startSize=8;endSize=8;curved=1;entryX=0;entryY=0.5;entryDx=0;entryDy=0;exitX=1;exitY=0.5;exitDx=0;exitDy=0;" parent="1" source="XO8Zl-QUJNWZfFOcC7H5-2" target="XO8Zl-QUJNWZfFOcC7H5-5" edge="1">
          <mxGeometry width="50" height="50" relative="1" as="geometry">
            <mxPoint x="210" y="90" as="sourcePoint" />
            <mxPoint x="240" y="90" as="targetPoint" />
          </mxGeometry>
        </mxCell>
        <mxCell id="XO8Zl-QUJNWZfFOcC7H5-34" value="Artist verification process" style="swimlane;whiteSpace=wrap;html=1;" parent="1" vertex="1">
          <mxGeometry x="400" y="200" width="770" height="480" as="geometry">
            <mxRectangle x="240" y="160" width="170" height="30" as="alternateBounds" />
          </mxGeometry>
        </mxCell>
        <mxCell id="XO8Zl-QUJNWZfFOcC7H5-8" value="does the query return a result" style="rounded=0;whiteSpace=wrap;html=1;" parent="XO8Zl-QUJNWZfFOcC7H5-34" vertex="1">
          <mxGeometry x="245" y="100" width="120" height="60" as="geometry" />
        </mxCell>
        <mxCell id="XO8Zl-QUJNWZfFOcC7H5-9" value="is result a match to query?" style="rounded=0;whiteSpace=wrap;html=1;" parent="XO8Zl-QUJNWZfFOcC7H5-34" vertex="1">
          <mxGeometry x="245" y="200" width="120" height="60" as="geometry" />
        </mxCell>
        <mxCell id="XO8Zl-QUJNWZfFOcC7H5-11" value="Artist is disregarded" style="ellipse;whiteSpace=wrap;html=1;" parent="XO8Zl-QUJNWZfFOcC7H5-34" vertex="1">
          <mxGeometry x="520" y="90" width="140" height="80" as="geometry" />
        </mxCell>
        <mxCell id="XO8Zl-QUJNWZfFOcC7H5-20" value="" style="endArrow=classic;html=1;rounded=0;fontSize=12;startSize=8;endSize=8;curved=1;entryX=0.5;entryY=0;entryDx=0;entryDy=0;exitX=0.5;exitY=1;exitDx=0;exitDy=0;" parent="XO8Zl-QUJNWZfFOcC7H5-34" source="XO8Zl-QUJNWZfFOcC7H5-8" target="XO8Zl-QUJNWZfFOcC7H5-9" edge="1">
          <mxGeometry width="50" height="50" relative="1" as="geometry">
            <mxPoint x="80" y="100" as="sourcePoint" />
            <mxPoint x="110" y="100" as="targetPoint" />
          </mxGeometry>
        </mxCell>
        <mxCell id="XO8Zl-QUJNWZfFOcC7H5-21" value="No" style="text;html=1;align=center;verticalAlign=middle;whiteSpace=wrap;rounded=0;" parent="XO8Zl-QUJNWZfFOcC7H5-34" vertex="1">
          <mxGeometry x="410" y="100" width="60" height="30" as="geometry" />
        </mxCell>
        <mxCell id="XO8Zl-QUJNWZfFOcC7H5-24" value="Artist object is added to list of artists" style="ellipse;whiteSpace=wrap;html=1;" parent="XO8Zl-QUJNWZfFOcC7H5-34" vertex="1">
          <mxGeometry x="520" y="300" width="140" height="80" as="geometry" />
        </mxCell>
        <mxCell id="XO8Zl-QUJNWZfFOcC7H5-28" value="Yes" style="text;html=1;align=center;verticalAlign=middle;whiteSpace=wrap;rounded=0;" parent="XO8Zl-QUJNWZfFOcC7H5-34" vertex="1">
          <mxGeometry x="260" y="160" width="60" height="30" as="geometry" />
        </mxCell>
        <mxCell id="XO8Zl-QUJNWZfFOcC7H5-29" value="No" style="text;html=1;align=center;verticalAlign=middle;whiteSpace=wrap;rounded=0;" parent="XO8Zl-QUJNWZfFOcC7H5-34" vertex="1">
          <mxGeometry x="250" y="260" width="60" height="30" as="geometry" />
        </mxCell>
        <mxCell id="XO8Zl-QUJNWZfFOcC7H5-36" value="For artist in artists, query Spotify artist search API endpoint" style="rounded=0;whiteSpace=wrap;html=1;" parent="XO8Zl-QUJNWZfFOcC7H5-34" vertex="1">
          <mxGeometry x="70" y="30" width="270" height="30" as="geometry" />
        </mxCell>
        <mxCell id="XO8Zl-QUJNWZfFOcC7H5-37" value="" style="endArrow=classic;html=1;rounded=0;fontSize=12;startSize=8;endSize=8;curved=1;entryX=0.5;entryY=0;entryDx=0;entryDy=0;exitX=0.5;exitY=1;exitDx=0;exitDy=0;" parent="XO8Zl-QUJNWZfFOcC7H5-34" source="XO8Zl-QUJNWZfFOcC7H5-36" target="XO8Zl-QUJNWZfFOcC7H5-8" edge="1">
          <mxGeometry width="50" height="50" relative="1" as="geometry">
            <mxPoint x="150" y="270" as="sourcePoint" />
            <mxPoint x="200" y="220" as="targetPoint" />
          </mxGeometry>
        </mxCell>
        <mxCell id="XO8Zl-QUJNWZfFOcC7H5-41" value="Artist object is created and confirmed as non verified" style="rounded=0;whiteSpace=wrap;html=1;" parent="XO8Zl-QUJNWZfFOcC7H5-34" vertex="1">
          <mxGeometry x="240" y="310" width="130" height="60" as="geometry" />
        </mxCell>
        <mxCell id="XO8Zl-QUJNWZfFOcC7H5-55" value="" style="endArrow=classic;html=1;rounded=0;fontSize=12;startSize=8;endSize=8;curved=1;entryX=0;entryY=0.5;entryDx=0;entryDy=0;" parent="XO8Zl-QUJNWZfFOcC7H5-34" target="XO8Zl-QUJNWZfFOcC7H5-11" edge="1">
          <mxGeometry width="50" height="50" relative="1" as="geometry">
            <mxPoint x="365" y="130" as="sourcePoint" />
            <mxPoint x="415" y="80" as="targetPoint" />
          </mxGeometry>
        </mxCell>
        <mxCell id="XO8Zl-QUJNWZfFOcC7H5-22" value="Yes" style="text;html=1;align=center;verticalAlign=middle;whiteSpace=wrap;rounded=0;" parent="XO8Zl-QUJNWZfFOcC7H5-34" vertex="1">
          <mxGeometry x="400" y="200" width="60" height="30" as="geometry" />
        </mxCell>
        <mxCell id="XO8Zl-QUJNWZfFOcC7H5-56" value="" style="endArrow=classic;html=1;rounded=0;fontSize=12;startSize=8;endSize=8;curved=1;exitX=1;exitY=0.5;exitDx=0;exitDy=0;entryX=0;entryY=0.5;entryDx=0;entryDy=0;" parent="XO8Zl-QUJNWZfFOcC7H5-34" source="XO8Zl-QUJNWZfFOcC7H5-9" target="U__Eem0J-QMG83xPJKUM-6" edge="1">
          <mxGeometry width="50" height="50" relative="1" as="geometry">
            <mxPoint x="430" y="250" as="sourcePoint" />
            <mxPoint x="480" y="200" as="targetPoint" />
          </mxGeometry>
        </mxCell>
        <mxCell id="XO8Zl-QUJNWZfFOcC7H5-57" value="" style="endArrow=classic;html=1;rounded=0;fontSize=12;startSize=8;endSize=8;curved=1;exitX=0.5;exitY=1;exitDx=0;exitDy=0;entryX=0.5;entryY=0;entryDx=0;entryDy=0;" parent="XO8Zl-QUJNWZfFOcC7H5-34" source="XO8Zl-QUJNWZfFOcC7H5-9" target="XO8Zl-QUJNWZfFOcC7H5-41" edge="1">
          <mxGeometry width="50" height="50" relative="1" as="geometry">
            <mxPoint x="430" y="230" as="sourcePoint" />
            <mxPoint x="480" y="180" as="targetPoint" />
          </mxGeometry>
        </mxCell>
        <mxCell id="XO8Zl-QUJNWZfFOcC7H5-58" value="" style="endArrow=classic;html=1;rounded=0;fontSize=12;startSize=8;endSize=8;curved=1;exitX=1;exitY=0.5;exitDx=0;exitDy=0;entryX=0;entryY=0.5;entryDx=0;entryDy=0;" parent="XO8Zl-QUJNWZfFOcC7H5-34" source="XO8Zl-QUJNWZfFOcC7H5-41" target="XO8Zl-QUJNWZfFOcC7H5-24" edge="1">
          <mxGeometry width="50" height="50" relative="1" as="geometry">
            <mxPoint x="361" y="240" as="sourcePoint" />
            <mxPoint x="490" y="340" as="targetPoint" />
          </mxGeometry>
        </mxCell>
        <mxCell id="XO8Zl-QUJNWZfFOcC7H5-61" value="Return list of authenticated artists" style="rounded=0;whiteSpace=wrap;html=1;" parent="XO8Zl-QUJNWZfFOcC7H5-34" vertex="1">
          <mxGeometry x="70" y="390" width="120" height="60" as="geometry" />
        </mxCell>
        <mxCell id="XO8Zl-QUJNWZfFOcC7H5-60" value="" style="endArrow=classic;html=1;rounded=0;fontSize=12;startSize=8;endSize=8;curved=1;exitX=0;exitY=1;exitDx=0;exitDy=0;entryX=0;entryY=0;entryDx=0;entryDy=0;" parent="XO8Zl-QUJNWZfFOcC7H5-34" source="XO8Zl-QUJNWZfFOcC7H5-36" target="XO8Zl-QUJNWZfFOcC7H5-61" edge="1">
          <mxGeometry width="50" height="50" relative="1" as="geometry">
            <mxPoint x="300" y="220" as="sourcePoint" />
            <mxPoint x="70" y="420" as="targetPoint" />
          </mxGeometry>
        </mxCell>
        <mxCell id="XO8Zl-QUJNWZfFOcC7H5-62" value="End of list of Artists" style="text;html=1;align=center;verticalAlign=middle;whiteSpace=wrap;rounded=0;" parent="XO8Zl-QUJNWZfFOcC7H5-34" vertex="1">
          <mxGeometry y="170" width="60" height="30" as="geometry" />
        </mxCell>
        <mxCell id="U__Eem0J-QMG83xPJKUM-6" value="Artist object is created and confirmed verified" style="rounded=0;whiteSpace=wrap;html=1;" vertex="1" parent="XO8Zl-QUJNWZfFOcC7H5-34">
          <mxGeometry x="530" y="200" width="120" height="60" as="geometry" />
        </mxCell>
        <mxCell id="U__Eem0J-QMG83xPJKUM-8" value="" style="endArrow=classic;html=1;rounded=0;fontSize=12;startSize=8;endSize=8;curved=1;exitX=0.5;exitY=1;exitDx=0;exitDy=0;entryX=0.5;entryY=0;entryDx=0;entryDy=0;" edge="1" parent="XO8Zl-QUJNWZfFOcC7H5-34" source="U__Eem0J-QMG83xPJKUM-6" target="XO8Zl-QUJNWZfFOcC7H5-24">
          <mxGeometry width="50" height="50" relative="1" as="geometry">
            <mxPoint x="460" y="240" as="sourcePoint" />
            <mxPoint x="510" y="190" as="targetPoint" />
          </mxGeometry>
        </mxCell>
        <mxCell id="XO8Zl-QUJNWZfFOcC7H5-38" value="" style="endArrow=none;dashed=1;html=1;rounded=0;fontSize=12;startSize=8;endSize=8;curved=1;entryX=0.5;entryY=1;entryDx=0;entryDy=0;exitX=0.5;exitY=0;exitDx=0;exitDy=0;" parent="1" source="XO8Zl-QUJNWZfFOcC7H5-34" target="XO8Zl-QUJNWZfFOcC7H5-5" edge="1">
          <mxGeometry width="50" height="50" relative="1" as="geometry">
            <mxPoint x="340" y="430" as="sourcePoint" />
            <mxPoint x="390" y="380" as="targetPoint" />
          </mxGeometry>
        </mxCell>
        <mxCell id="XO8Zl-QUJNWZfFOcC7H5-63" value="" style="endArrow=classic;html=1;rounded=0;fontSize=12;startSize=8;endSize=8;curved=1;exitX=1;exitY=0.5;exitDx=0;exitDy=0;entryX=0;entryY=0.5;entryDx=0;entryDy=0;" parent="1" source="XO8Zl-QUJNWZfFOcC7H5-5" target="XO8Zl-QUJNWZfFOcC7H5-6" edge="1">
          <mxGeometry width="50" height="50" relative="1" as="geometry">
            <mxPoint x="370" y="430" as="sourcePoint" />
            <mxPoint x="420" y="380" as="targetPoint" />
          </mxGeometry>
        </mxCell>
        <mxCell id="U__Eem0J-QMG83xPJKUM-1" value="Event Object" style="swimlane;whiteSpace=wrap;html=1;" vertex="1" parent="1">
          <mxGeometry y="150" width="200" height="140" as="geometry">
            <mxRectangle x="-10" y="180" width="110" height="30" as="alternateBounds" />
          </mxGeometry>
        </mxCell>
        <mxCell id="U__Eem0J-QMG83xPJKUM-2" value="Attributes:&lt;div&gt;- Artist Name&lt;/div&gt;&lt;div&gt;- Event Venue&lt;/div&gt;&lt;div&gt;- Date of Event&lt;/div&gt;&lt;div&gt;- Coordinates of Venue&lt;/div&gt;" style="text;html=1;align=center;verticalAlign=middle;resizable=0;points=[];autosize=1;strokeColor=none;fillColor=none;fontSize=16;" vertex="1" parent="U__Eem0J-QMG83xPJKUM-1">
          <mxGeometry y="20" width="190" height="110" as="geometry" />
        </mxCell>
        <mxCell id="U__Eem0J-QMG83xPJKUM-4" value="" style="endArrow=none;dashed=1;html=1;dashPattern=1 3;strokeWidth=2;rounded=0;fontSize=12;startSize=8;endSize=8;curved=1;entryX=0.5;entryY=1;entryDx=0;entryDy=0;exitX=0.5;exitY=0;exitDx=0;exitDy=0;" edge="1" parent="1" source="U__Eem0J-QMG83xPJKUM-1" target="XO8Zl-QUJNWZfFOcC7H5-2">
          <mxGeometry width="50" height="50" relative="1" as="geometry">
            <mxPoint x="510" y="360" as="sourcePoint" />
            <mxPoint x="560" y="310" as="targetPoint" />
          </mxGeometry>
        </mxCell>
        <mxCell id="U__Eem0J-QMG83xPJKUM-5" value="TM API returns a list of Event Objects" style="text;html=1;align=center;verticalAlign=middle;whiteSpace=wrap;rounded=0;" vertex="1" parent="1">
          <mxGeometry x="60" y="100" width="120" height="30" as="geometry" />
        </mxCell>
        <mxCell id="U__Eem0J-QMG83xPJKUM-9" value="Artists Object" style="swimlane;whiteSpace=wrap;html=1;" vertex="1" parent="1">
          <mxGeometry x="10" y="340" width="200" height="200" as="geometry" />
        </mxCell>
        <mxCell id="U__Eem0J-QMG83xPJKUM-10" value="Attributes:&lt;div&gt;- Name&lt;/div&gt;&lt;div&gt;-ID&lt;/div&gt;&lt;div&gt;- Verified&lt;/div&gt;&lt;div&gt;- Catalog Objects&lt;/div&gt;&lt;div&gt;- Catalog&lt;/div&gt;" style="text;html=1;align=center;verticalAlign=middle;resizable=0;points=[];autosize=1;strokeColor=none;fillColor=none;fontSize=16;" vertex="1" parent="U__Eem0J-QMG83xPJKUM-9">
          <mxGeometry x="20" y="20" width="150" height="130" as="geometry" />
        </mxCell>
        <mxCell id="U__Eem0J-QMG83xPJKUM-12" style="edgeStyle=none;curved=1;rounded=0;orthogonalLoop=1;jettySize=auto;html=1;fontSize=12;startSize=8;endSize=8;" edge="1" parent="U__Eem0J-QMG83xPJKUM-9" target="U__Eem0J-QMG83xPJKUM-10">
          <mxGeometry relative="1" as="geometry">
            <mxPoint x="170" y="77" as="sourcePoint" />
          </mxGeometry>
        </mxCell>
        <mxCell id="U__Eem0J-QMG83xPJKUM-11" value="" style="endArrow=none;dashed=1;html=1;dashPattern=1 3;strokeWidth=2;rounded=0;fontSize=12;startSize=8;endSize=8;curved=1;entryX=0.5;entryY=1;entryDx=0;entryDy=0;exitX=0.5;exitY=0;exitDx=0;exitDy=0;" edge="1" parent="1" source="U__Eem0J-QMG83xPJKUM-9" target="XO8Zl-QUJNWZfFOcC7H5-5">
          <mxGeometry width="50" height="50" relative="1" as="geometry">
            <mxPoint x="500" y="380" as="sourcePoint" />
            <mxPoint x="550" y="330" as="targetPoint" />
          </mxGeometry>
        </mxCell>
        <mxCell id="U__Eem0J-QMG83xPJKUM-13" value="Spotifty returns a list of Artist Objects" style="text;html=1;align=center;verticalAlign=middle;whiteSpace=wrap;rounded=0;" vertex="1" parent="1">
          <mxGeometry x="230" y="280" width="140" height="30" as="geometry" />
        </mxCell>
      </root>
    </mxGraphModel>
  </diagram>
  <diagram id="2qL8NuHPfcFcVgpG9vYE" name="Page-2">
    <mxGraphModel dx="1442" dy="979" grid="0" gridSize="10" guides="1" tooltips="1" connect="1" arrows="1" fold="1" page="0" pageScale="1" pageWidth="827" pageHeight="1169" math="0" shadow="0">
      <root>
        <mxCell id="0" />
        <mxCell id="1" parent="0" />
        <mxCell id="0zQIRcMx8JFoUt-OU-pt-1" value="Project Directory" style="rounded=0;whiteSpace=wrap;html=1;" vertex="1" parent="1">
          <mxGeometry x="24" y="-50" width="120" height="60" as="geometry" />
        </mxCell>
        <mxCell id="0zQIRcMx8JFoUt-OU-pt-2" value="Flask App" style="ellipse;whiteSpace=wrap;html=1;aspect=fixed;" vertex="1" parent="1">
          <mxGeometry x="-98" y="43" width="80" height="80" as="geometry" />
        </mxCell>
        <mxCell id="0zQIRcMx8JFoUt-OU-pt-3" value="API Directory" style="whiteSpace=wrap;html=1;aspect=fixed;" vertex="1" parent="1">
          <mxGeometry x="44" y="43" width="80" height="80" as="geometry" />
        </mxCell>
        <mxCell id="0zQIRcMx8JFoUt-OU-pt-4" value="TicketMaster API" style="ellipse;whiteSpace=wrap;html=1;aspect=fixed;" vertex="1" parent="1">
          <mxGeometry x="-36" y="164" width="80" height="80" as="geometry" />
        </mxCell>
        <mxCell id="0zQIRcMx8JFoUt-OU-pt-5" value="Spotify API" style="ellipse;whiteSpace=wrap;html=1;aspect=fixed;" vertex="1" parent="1">
          <mxGeometry x="44" y="164" width="80" height="80" as="geometry" />
        </mxCell>
        <mxCell id="0zQIRcMx8JFoUt-OU-pt-6" value="IPInfoAPI" style="ellipse;whiteSpace=wrap;html=1;aspect=fixed;" vertex="1" parent="1">
          <mxGeometry x="124" y="164" width="80" height="80" as="geometry" />
        </mxCell>
        <mxCell id="0zQIRcMx8JFoUt-OU-pt-7" value="API Integration" style="ellipse;whiteSpace=wrap;html=1;aspect=fixed;" vertex="1" parent="1">
          <mxGeometry x="167" y="43" width="80" height="80" as="geometry" />
        </mxCell>
        <mxCell id="0zQIRcMx8JFoUt-OU-pt-8" value="React frontend" style="whiteSpace=wrap;html=1;aspect=fixed;" vertex="1" parent="1">
          <mxGeometry x="306" y="43" width="80" height="80" as="geometry" />
        </mxCell>
      </root>
    </mxGraphModel>
  </diagram>
</mxfile>
